<svg width="21" height="19" xmlns="http://www.w3.org/2000/svg"><path d="M12.939.198a1.015 1.015 0 011.404.195l3.634 4.718h.58a2.409 2.409 0 012.406 1.968 2.39 2.39 0 01-1.573 2.668l-1.066 6.37c-.278 1.663-1.743 2.885-3.461 2.883H6.104c-1.718 0-3.184-1.226-3.458-2.893l-1.063-6.36A2.388 2.388 0 01.037 7.089c.205-1.136 1.205-1.968 2.379-1.978h.83L6.889.39a1.014 1.014 0 011.403-.19c.44.328.527.944.194 1.377L5.757 5.111h9.71l-2.728-3.533a.973.973 0 01.2-1.38zm4.398 9.706H3.642l.986 5.9c.123.71.75 1.23 1.482 1.23h8.76c.732 0 1.358-.52 1.48-1.23l.987-5.9zm-4.364 4.17c.568 0 1.027.473 1.027 1.056 0 .583-.46 1.055-1.027 1.055H7.327c-.568 0-1.027-.472-1.027-1.055s.46-1.056 1.027-1.056zm0-2.815c.568 0 1.027.473 1.027 1.056 0 .583-.46 1.055-1.027 1.055H7.327c-.568 0-1.027-.472-1.027-1.055s.46-1.056 1.027-1.056zm5.585-4.182H2.416a.434.434 0 00-.438.43c0 .238.197.43.438.43h16.142a.435.435 0 00.438-.43.434.434 0 00-.438-.43z" fill="#FFF" fill-rule="nonzero"/></svg>